<svg width="80" height="80" viewBox="0 0 80 80" fill="none" xmlns="http://www.w3.org/2000/svg">
<path d="M63.334 4.16699C64.8809 4.16712 66.3651 4.78213 67.459 5.87598C68.5525 6.96981 69.1669 8.45329 69.167 10V70C69.167 71.5469 68.5527 73.0311 67.459 74.125C66.3651 75.2189 64.8809 75.8339 63.334 75.834H21.667C18.7941 75.8339 16.0384 74.6924 14.0068 72.6611C11.9752 70.6295 10.833 67.8732 10.833 65V15C10.8331 12.1269 11.9753 9.37141 14.0068 7.33984C16.0384 5.30843 18.794 4.16708 21.667 4.16699H63.334ZM21.667 59.167C20.1201 59.1671 18.6368 59.7822 17.543 60.876C16.4491 61.9699 15.8341 63.453 15.834 65C15.834 66.5471 16.449 68.031 17.543 69.125C18.6368 70.2186 20.1202 70.8339 21.667 70.834H63.334C63.5547 70.8339 63.7667 70.7458 63.9229 70.5898C64.079 70.4336 64.167 70.2209 64.167 70V59.167H21.667Z" fill="#AAAAAA"/>
</svg>
